<?xml version="1.0" encoding="utf-8"?>
<!-- Generator: Adobe Illustrator 24.3.0, SVG Export Plug-In . SVG Version: 6.00 Build 0)  -->
<svg version="1.1" xmlns="http://www.w3.org/2000/svg" xmlns:xlink="http://www.w3.org/1999/xlink" x="0px" y="0px" width="748.4px"
	 height="398.7px" viewBox="0 0 748.4 398.7" style="enable-background:new 0 0 748.4 398.7;" xml:space="preserve">
<style type="text/css">
	.st0{fill:#0086DC;}
	.st1{fill:#002050;}
	.st2{fill:#334D73;}
	.st3{fill:#FFFFFF;}
	.st4{fill:#99DBFF;}
	.st5{fill:#70BEF2;}
	.st6{fill:#F7B43E;}
	.st7{fill:#349CD6;}
	.st8{fill:#F6B399;}
	.st9{fill:#F7941D;}
	.st10{fill:#233D4D;}
	.st11{fill:none;stroke:#99DBFF;stroke-width:1.8;stroke-linecap:round;stroke-linejoin:round;stroke-dasharray:6,6;}
	.st12{fill:#EDEDED;}
	.st13{fill:#EE796A;}
</style>
<g id="Layer_3">
	<path class="st0" d="M62.8,127.5L202.2,47c15.9-9.2,36.4-3.7,45.5,12.2l80.5,139.4c9.2,15.9,3.7,36.4-12.2,45.5l-139.4,80.5
		c-15.9,9.2-36.4,3.7-45.5-12.2L50.6,173.1C41.5,157.2,46.9,136.7,62.8,127.5z"/>
	<path class="st0" d="M594,369.3l-133.5-62.7c-16.6-7.8-23.8-27.8-16-44.3l62.7-133.5c7.8-16.6,27.8-23.8,44.3-16l133.5,62.7
		c16.6,7.8,23.8,27.8,16,44.3l-62.7,133.5C630.5,369.9,610.6,377.1,594,369.3z"/>
</g>
<g id="Layer_1">
	<g id="Слой_1">
		<g>
			<g>
				<g>
					<path class="st1" d="M713.4,220.8v66.3c0,3-2.4,5.4-5.4,5.4h-97.2c-3,0-5.4-2.4-5.4-5.4v-66.3c0-3,2.4-5.4,5.4-5.4H708
						C711,215.4,713.4,217.8,713.4,220.8z"/>
					<path class="st2" d="M713.4,220.8v1h-108v-1c0-3,2.4-5.4,5.4-5.4H708C711,215.4,713.4,217.8,713.4,220.8z"/>
					<g>
						<path class="st3" d="M610.4,217.5c-0.8,0-1.4,0.7-1.4,1.4c0,0.8,0.7,1.4,1.4,1.4c0.8,0,1.4-0.7,1.4-1.4
							S611.2,217.5,610.4,217.5z"/>
						<path class="st3" d="M614.8,217.5c-0.8,0-1.4,0.7-1.4,1.4c0,0.8,0.7,1.4,1.4,1.4c0.8,0,1.4-0.7,1.4-1.4
							S615.6,217.5,614.8,217.5z"/>
						<path class="st3" d="M619.1,217.5c-0.8,0-1.4,0.7-1.4,1.4c0,0.8,0.7,1.4,1.4,1.4c0.8,0,1.4-0.7,1.4-1.4
							S619.9,217.5,619.1,217.5z"/>
					</g>
				</g>
			</g>
			<g>
				<path class="st3" d="M637.4,255.3c0-0.6,0.4-1.1,1-1.2c2.8-0.3,3.1-1.7,3.1-3.9l-0.2-5.9c0-5.2,2.6-7,6.7-7l0,0
					c0.7,0,1.2,0.5,1.2,1.2v2.2h-0.7c-2.4,0-3.1,1-3.1,3.7l0.2,5.4c0,2.3-0.4,4.2-1.6,5.2c-0.5,0.5-0.6,1.3,0,1.8
					c1.3,1,1.7,2.8,1.6,5.3l-0.2,5.4c0,2.8,1,3.7,3.2,3.7h0.7v2.2c0,0.7-0.5,1.2-1.2,1.2H648c-3.8,0-6.8-1.5-6.6-6.8l0.2-6.1
					c0.1-2.4-0.3-3.7-3.1-3.9c-0.6-0.1-1.1-0.6-1.1-1.2L637.4,255.3L637.4,255.3z"/>
				<path class="st3" d="M649.4,266.1v-0.6c0-1.1,0.9-2,2-2h0.7c1.1,0,2,0.9,2,2v0.6c0,1.1-0.9,2-2,2h-0.7
					C650.2,268.1,649.4,267.2,649.4,266.1z"/>
				<path class="st3" d="M657,266.1v-0.6c0-1.1,0.9-2,2-2h0.7c1.1,0,2,0.9,2,2v0.6c0,1.1-0.9,2-2,2H659
					C657.9,268.1,657,267.2,657,266.1z"/>
				<path class="st3" d="M664.6,266.1v-0.6c0-1.1,0.9-2,2-2h0.7c1.1,0,2,0.9,2,2v0.6c0,1.1-0.9,2-2,2h-0.7
					C665.5,268.1,664.6,267.2,664.6,266.1z"/>
				<path class="st3" d="M681.4,256.8c0,0.6-0.4,1.1-1,1.2c-2.8,0.3-3.1,1.7-3.1,3.9l0.2,5.9c0,5.2-2.6,7-6.7,7l0,0
					c-0.7,0-1.2-0.5-1.2-1.2v-2.2h0.8c2.4,0,3.1-1,3.1-3.7l-0.2-5.4c0-2.3,0.4-4.2,1.6-5.2c0.5-0.5,0.6-1.3,0-1.8
					c-1.3-1-1.7-2.8-1.6-5.3l0.2-5.4c0-2.8-1-3.7-3.2-3.7h-0.7v-2.2c0-0.7,0.5-1.2,1.2-1.2h0.1c3.8,0,6.6,1.5,6.6,6.8l-0.2,6.1
					c0,2.4,0.3,3.7,3.1,3.9c0.6,0,1.1,0.6,1.1,1.2L681.4,256.8L681.4,256.8z"/>
			</g>
		</g>
		<g>
			<g>
				<path class="st1" d="M163.4,111v76.9c0,3.5-2.7,6.3-6.3,6.3H44.5c-3.5,0-6.3-2.7-6.3-6.3V111c0-3.5,2.7-6.3,6.3-6.3h112.6
					C160.6,104.8,163.4,107.5,163.4,111z"/>
				<path class="st2" d="M163.4,111v1.2h-125V111c0-3.5,2.7-6.3,6.3-6.3h112.6C160.6,104.8,163.4,107.5,163.4,111z"/>
				<g>
					<path class="st3" d="M44.1,107.2c-0.9,0-1.7,0.7-1.7,1.7c0,0.9,0.7,1.7,1.7,1.7c0.9,0,1.7-0.7,1.7-1.7
						C45.8,107.9,45.1,107.2,44.1,107.2z"/>
					<path class="st3" d="M49.2,107.2c-0.9,0-1.7,0.7-1.7,1.7c0,0.9,0.7,1.7,1.7,1.7c0.9,0,1.7-0.7,1.7-1.7
						C50.8,107.9,50.1,107.2,49.2,107.2z"/>
					<path class="st3" d="M54.1,107.2c-0.9,0-1.7,0.7-1.7,1.7c0,0.9,0.7,1.7,1.7,1.7c0.9,0,1.7-0.7,1.7-1.7
						C55.8,107.9,55.1,107.2,54.1,107.2z"/>
				</g>
			</g>
			<path class="st3" d="M85.7,166c-0.5,0-1-0.1-1.5-0.5l-14.1-9.8c-0.6-0.5-1-1.2-1-2.1c0-0.8,0.4-1.6,1-2.1L84,140.9
				c1.2-0.9,2.8-0.6,3.6,0.5c0.9,1.2,0.6,2.8-0.5,3.6l-11,8.4l11.2,7.8c1.2,0.8,1.5,2.4,0.6,3.6C87.4,165.6,86.6,166,85.7,166z"/>
			<path class="st3" d="M116.4,166c-0.8,0-1.6-0.4-2.1-1c-0.9-1.2-0.6-2.8,0.5-3.6l11-8.4l-11.2-7.8c-1.2-0.8-1.5-2.4-0.6-3.6
				c0.8-1.2,2.4-1.5,3.6-0.6l14.1,9.8c0.6,0.5,1,1.2,1,2.1c0,0.8-0.4,1.6-1,2.1l-13.9,10.6C117.4,165.7,116.9,166,116.4,166z"/>
			<path class="st3" d="M94.3,172.7c-0.4,0-0.6-0.1-1-0.3c-1.4-0.5-2-2.1-1.4-3.5l15.2-35.4c0.5-1.4,2.1-2,3.5-1.4
				c1.4,0.5,2,2.1,1.4,3.5L96.7,171C96.3,172.1,95.3,172.7,94.3,172.7z"/>
		</g>
		<path class="st4" d="M585.2,72.3v267.8c0,6.9-5.6,12.6-12.6,12.6H204.8c-6.9,0-12.6-5.6-12.6-12.6V72.3c0-6.9,5.6-12.6,12.6-12.6
			h367.9C579.7,59.8,585.2,65.4,585.2,72.3z"/>
		<path class="st5" d="M466.6,210.8H224.9c-7.9,0-14.4-6-14.4-13.5v-6c0-7.4,6.4-13.5,14.4-13.5h241.7c7.9,0,14.4,6,14.4,13.5v6
			C481,204.9,474.5,210.8,466.6,210.8z"/>
		<path class="st1" d="M585.2,72.3v2.2h-393v-2.2c0-6.9,5.6-12.6,12.6-12.6h367.9C579.7,59.8,585.2,65.4,585.2,72.3z"/>
		<path class="st1" d="M456.2,337.6H233.4c-13.7,0-24.8-10.4-24.8-23.3v-70.2c0-12.8,11.1-23.3,24.8-23.3h222.7
			c13.7,0,24.8,10.4,24.8,23.3v70.2C480.9,327.1,469.8,337.6,456.2,337.6z"/>
		<path class="st6" d="M436.1,291.2l-2.2,0.9c-0.1,0-0.2,0.1-0.3,0.1c-0.4-0.2-0.9-0.4-1.4-0.6c0-0.1-0.1-0.1-0.1-0.2l-0.9-2.2
			c-0.2-0.5-0.7-0.8-1.3-0.8h-5.5c-0.5,0-1.1,0.3-1.3,0.8l-0.9,2.2c0,0.1-0.1,0.1-0.1,0.2c-0.5,0.2-1.1,0.4-1.5,0.6
			c-0.1,0-0.1,0-0.2-0.1l-3.1-1.4l-0.6,0.6l-3.9,3.9l-0.6,0.6l0.7,1.7l0.6,1.5c0,0.1,0.1,0.1,0.1,0.2c-0.2,0.4-0.4,0.9-0.6,1.5
			c-0.1,0-0.1,0.1-0.2,0.1l-2.2,0.9c-0.5,0.2-0.8,0.7-0.8,1.3v5.5c0,0.5,0.3,1.1,0.8,1.3l2.2,0.9c0.1,0.1,0.3,0.1,0.4,0.2
			c0.1,0.3,0.3,0.7,0.4,1.1c0,0.1,0,0.3-0.1,0.4l-0.9,2.2c-0.2,0.5-0.1,1.1,0.3,1.5l3.9,3.9c0.4,0.4,0.9,0.5,1.5,0.3l2.2-0.9
			c0.2-0.1,0.5-0.1,0.7-0.1c0.2,0.1,0.4,0.1,0.5,0.2c0.2,0.1,0.4,0.3,0.5,0.6l0.9,2.2c0.2,0.5,0.7,0.8,1.3,0.8h5.5
			c0.5,0,1.1-0.3,1.3-0.8l0.9-2.2c0.3-0.7,1.1-1.1,1.8-0.7l3.1,1.4l0.6-0.6l3.9-3.9l0.6-0.6l-1.4-3.1c-0.1-0.3-0.1-0.5-0.1-0.8
			c0.1-0.1,0.1-0.3,0.2-0.4c0.1-0.2,0.3-0.4,0.6-0.5l2.2-0.9c0.5-0.2,0.8-0.7,0.8-1.3v-5.5c0-0.5-0.3-1.1-0.8-1.3l-2.2-0.9
			c-0.2-0.1-0.3-0.2-0.4-0.3c-0.1-0.3-0.3-0.7-0.4-1.1c0-0.2,0-0.3,0.1-0.5l0.9-2.2c0.2-0.5,0.1-1.1-0.3-1.5l-3.9-3.9
			C437.2,291.1,436.5,291,436.1,291.2z M423.4,302c2.1-2.1,5.3-2.1,7.3,0s2.1,5.3,0,7.3c-2.1,2.1-5.3,2.1-7.3,0
			C421.3,307.4,421.3,304,423.4,302z"/>
		<path class="st6" d="M446,233.9l-2,0.2c-0.1,0-0.1,0-0.2,0c-0.3-0.2-0.6-0.5-0.9-0.7c0-0.1,0-0.1,0-0.2l-0.2-2
			c0-0.4-0.3-0.7-0.7-0.9l-4.1-1.2c-0.4-0.1-0.8,0-1.2,0.3l-1.3,1.6l-0.1,0.1c-0.4,0-0.8,0.1-1.3,0.1c0,0-0.1,0-0.1-0.1l-2.1-1.7
			l-0.6,0.3l-3.7,2.1l-0.6,0.3l0.2,1.5l0.1,1.3c0,0.1,0,0.1,0,0.2c-0.3,0.3-0.5,0.6-0.7,0.9c-0.1,0-0.1,0-0.2,0l-2,0.2
			c-0.4,0-0.7,0.3-0.9,0.7l-1.2,4.1c-0.1,0.4,0,0.8,0.3,1.2l1.6,1.3c0.1,0.1,0.2,0.2,0.2,0.2c0,0.3,0.1,0.6,0.1,0.9
			c0,0.1-0.1,0.2-0.2,0.3l-1.3,1.6c-0.3,0.3-0.3,0.8-0.1,1.2l2.1,3.7c0.2,0.4,0.6,0.6,1.1,0.5l2-0.2c0.2,0,0.4,0,0.5,0.1
			s0.2,0.2,0.4,0.3c0.1,0.1,0.2,0.3,0.2,0.5l0.2,2c0,0.4,0.3,0.7,0.7,0.9l4.1,1.2c0.4,0.1,0.8,0,1.2-0.3l1.3-1.6
			c0.3-0.4,1.1-0.5,1.5-0.2l2.1,1.7l0.6-0.3l3.7-2.1l0.6-0.3l-0.3-2.6c0-0.2,0-0.4,0.1-0.6c0.1-0.1,0.2-0.2,0.2-0.3
			c0.1-0.1,0.3-0.2,0.5-0.2l2-0.2c0.4,0,0.7-0.3,0.9-0.7l1.2-4.1c0.1-0.4,0-0.8-0.3-1.2l-1.6-1.3c-0.1-0.1-0.2-0.2-0.2-0.3
			c0-0.3,0-0.5-0.1-0.8c0-0.1,0.1-0.2,0.2-0.3l1.3-1.6c0.3-0.3,0.3-0.8,0.1-1.2l-2.1-3.7C446.7,234.1,446.4,233.9,446,233.9z
			 M434,239.4c2-1.1,4.4-0.4,5.5,1.6s0.4,4.4-1.6,5.5s-4.4,0.4-5.5-1.6C431.4,242.8,432.1,240.4,434,239.4z"/>
		<path class="st7" d="M385.6,217.2v114.6c0,6.5-4.9,11.7-10.9,11.7H217.9c-6,0-10.9-5.3-10.9-11.7V217.2c0-6.5,4.9-11.7,10.9-11.7
			h156.9C380.8,205.3,385.6,210.6,385.6,217.2z"/>
		<path class="st5" d="M385.3,229.4v41.5l-0.8,21.1c0,0-11.4,5.3-12.3,5.1c-0.4-0.1-17.5-3.5-38.5-8.9
			c-25.9-6.7-56.5-15.6-56.5-15.6l-0.3-4.2c0,0,50.8-20.1,62.2-24.7C361.4,234.4,382.8,230,385.3,229.4z"/>
		<g>
			<path class="st3" d="M204,64.7c-1.9,0-3.3,1.6-3.3,3.3c0,1.9,1.6,3.3,3.3,3.3c1.9,0,3.3-1.6,3.3-3.3
				C207.2,66.3,205.8,64.7,204,64.7z"/>
			<path class="st3" d="M214.1,64.7c-1.9,0-3.3,1.6-3.3,3.3c0,1.9,1.6,3.3,3.3,3.3c1.9,0,3.3-1.6,3.3-3.3
				C217.5,66.3,215.9,64.7,214.1,64.7z"/>
			<path class="st3" d="M224.1,64.7c-1.9,0-3.3,1.6-3.3,3.3c0,1.9,1.6,3.3,3.3,3.3c1.9,0,3.3-1.6,3.3-3.3
				C227.4,66.3,226,64.7,224.1,64.7z"/>
		</g>
		<path class="st8" d="M199,297.6c0.3-1.5,0.7-2.9,1.2-4.2C199.7,294.6,199.3,296.1,199,297.6z"/>
		<path class="st9" d="M418.1,255.7l-4.2-1.8c-0.3-0.1-0.5-0.3-0.7-0.5c-0.2-0.6-0.5-1.3-0.7-1.9c0-0.3,0.1-0.6,0.2-0.8l1.8-4.2
			c0.4-0.9,0.2-2-0.5-2.6l-7.1-7.1c-0.7-0.7-1.8-0.9-2.6-0.5l-4.2,1.8c-0.2,0.1-0.3,0.1-0.5,0.1c-0.8-0.4-1.7-0.7-2.4-1.1
			c-0.1-0.1-0.2-0.3-0.2-0.4l-1.8-4.2c-0.4-0.9-1.3-1.6-2.2-1.6h-10c-1.1,0-1.9,0.6-2.2,1.6l-1.8,4.2c-0.1,0.1-0.1,0.2-0.2,0.3
			c-0.9,0.3-1.9,0.7-2.6,1.2c-0.1,0-0.2-0.1-0.3-0.1l-5.8-2.3l-1.2,1.2l-7.1,7.1l-1.2,1.2l1.4,3.1l1.2,2.6c0.1,0.1,0.1,0.3,0.1,0.4
			c-0.4,0.8-0.7,1.7-1.1,2.5c-0.1,0.1-0.3,0.2-0.4,0.2l-4.2,1.8c-0.9,0.4-1.6,1.3-1.6,2.2v10.1c0,1.1,0.6,1.9,1.6,2.2l4.2,1.8
			c0.3,0.1,0.5,0.3,0.7,0.4c0.2,0.6,0.5,1.4,0.8,2c0,0.3-0.1,0.5-0.2,0.8l-1.8,4.2c-0.4,0.9-0.2,2,0.5,2.6l7.1,7.1
			c0.7,0.7,1.8,0.9,2.6,0.5l4.2-1.8c0.4-0.2,0.9-0.2,1.4-0.2c0.3,0.1,0.6,0.3,1.1,0.4c0.4,0.3,0.6,0.6,0.8,1.1l1.8,4.2
			c0.4,0.9,1.3,1.6,2.2,1.6h10c1.1,0,1.9-0.6,2.2-1.6l1.8-4.2c0.5-1.3,2-1.9,3.2-1.4l5.8,2.3l1.2-1.2l7.1-7.1l1.2-1.2l-2.3-5.8
			c-0.2-0.5-0.2-1.1-0.1-1.5c0.1-0.3,0.2-0.5,0.3-0.8c0.3-0.4,0.6-0.7,1.2-0.9l4.2-1.8c0.9-0.4,1.6-1.3,1.6-2.2v-10.1
			C419.6,257,419.1,256.2,418.1,255.7z M394.1,269.5c-3.7,3.7-9.7,3.7-13.3,0c-3.7-3.7-3.7-9.7,0-13.3c3.7-3.7,9.7-3.7,13.3,0
			C397.8,259.8,397.8,265.8,394.1,269.5z"/>
		<g>
			<path class="st5" d="M391.7,117.6v42.6c0,3.5-2.9,6.4-6.4,6.4h-63.6c-3.5,0-6.4-2.9-6.4-6.4v-13.5c2.7-2,5.9-3.3,9.2-4.1
				c3.5-0.8,7.2-0.9,10.8-0.1c2.2,0.5,4.5,1.4,6.8,1.9c2.2,0.4,4.6,0.3,6.9-0.3c9.2-2.4,15.4-15.1,22.4-20.8
				C376.5,118.8,385.2,119.7,391.7,117.6z"/>
			<path class="st7" d="M391.7,95.5v22.1c-6.5,2.1-12.9,3.5-18.1,7.8c-6.9,5.8-15.5,16.1-24.6,18.5c-2.2,0.6-4.6,0.7-6.9,0.3
				c-2.2-0.4-4.5-1.3-6.8-1.9c-3.5-0.8-7.2-0.7-10.8,0.1c-3.3,0.8-6.5,2.2-9.2,4.1v-51c0-3.5,2.9-6.4,6.4-6.4h63.6
				C388.8,89.1,391.7,92,391.7,95.5z"/>
			<path class="st7" d="M473.1,89.1h-63.6c-3.5,0-6.4,2.9-6.4,6.4v64.8c0,3.5,2.9,6.4,6.4,6.4h63.6c3.5,0,6.4-2.9,6.4-6.4v-42.6
				V95.5C479.4,92,476.6,89.1,473.1,89.1z"/>
			<path class="st9" d="M298.2,89.1h-81.3c-3.5,0-6.4,2.9-6.4,6.4v64.8c0,3.5,2.9,6.4,6.4,6.4h81.3c3.5,0,6.4-2.9,6.4-6.4V95.5
				C304.6,92,301.7,89.1,298.2,89.1z"/>
			<path class="st7" d="M558.5,180H499c-3.7,0-6.7,3-6.7,6.7v54.1c0.1-0.1,0.2-0.1,0.4-0.2c-0.1,0.1-0.3,0.2-0.4,0.3v4.5
				c0,3.7,3,6.7,6.7,6.7h59.6c3.7,0,6.7-3,6.7-6.7v-35.3v-23.4C565.3,183,562.3,180,558.5,180z"/>
			<path class="st5" d="M558.5,263.9H499c-3.7,0-6.7,3-6.7,6.7v54.1c0.1-0.1,0.2-0.1,0.4-0.2c-0.1,0.1-0.3,0.2-0.4,0.3v4.5
				c0,3.7,3,6.7,6.7,6.7h59.6c3.7,0,6.7-3,6.7-6.7V294v-23.4C565.3,267.1,562.3,263.9,558.5,263.9z"/>
			<ellipse class="st5" cx="342.5" cy="114.8" rx="14.4" ry="14.4"/>
		</g>
		<g>
			<path class="st5" d="M494.8,98.8h68.1c2,0,3.5-1.7,3.5-3.7c0-2.1-1.6-3.7-3.5-3.7h-68.1c-2,0-3.5,1.7-3.5,3.7
				C491.2,97.1,492.8,98.8,494.8,98.8z"/>
			<path class="st5" d="M562.8,104.6h-18.1c-2,0-3.5,1.7-3.5,3.7s1.6,3.7,3.5,3.7h18.1c2,0,3.5-1.7,3.5-3.7
				C566.4,106.4,564.7,104.6,562.8,104.6z"/>
			<path class="st5" d="M494.8,112.1h37.4c2,0,3.5-1.7,3.5-3.7s-1.6-3.7-3.5-3.7h-37.4c-2,0-3.5,1.7-3.5,3.7
				S492.8,112.1,494.8,112.1z"/>
			<path class="st5" d="M562.8,118H536c-2,0-3.5,1.7-3.5,3.7c0,2.1,1.6,3.7,3.5,3.7h26.8c2,0,3.5-1.7,3.5-3.7
				C566.4,119.7,564.7,118,562.8,118z"/>
			<path class="st5" d="M494.8,125.5h28.6c2,0,3.5-1.7,3.5-3.7s-1.6-3.7-3.5-3.7h-28.6c-2,0-3.5,1.7-3.5,3.7
				S492.8,125.5,494.8,125.5z"/>
			<path class="st5" d="M562.8,145.7H536c-2,0-3.5,1.7-3.5,3.7c0,2.1,1.6,3.7,3.5,3.7h26.8c2,0,3.5-1.7,3.5-3.7
				C566.4,147.3,564.7,145.7,562.8,145.7z"/>
			<path class="st5" d="M494.8,153.3h28.6c2,0,3.5-1.7,3.5-3.7c0-2.1-1.6-3.7-3.5-3.7h-28.6c-2,0-3.5,1.7-3.5,3.7
				C491.2,151.6,492.8,153.3,494.8,153.3z"/>
			<path class="st5" d="M562.8,131.5h-68.1c-2,0-3.5,1.7-3.5,3.7c0,2.1,1.6,3.7,3.5,3.7h68.1c2,0,3.5-1.7,3.5-3.7
				C566.4,133.2,564.7,131.5,562.8,131.5z"/>
		</g>
		<path class="st10" d="M180.8,347.7c-0.7,0.2-1.6,0.3-2.5,0.5c0.4-0.2,0.9-0.4,1.4-0.6C180.1,347.2,180.5,347.4,180.8,347.7z"/>
		<path class="st4" d="M296.1,246.2c-2.5-0.6-5.2-0.9-7.8-0.9c1.8-4,3.6-8,5.9-11.8c0.5-0.8-0.5-1.9-1.4-1.6
			c-4.5,1.8-8.8,4.3-12.4,7.6c-0.8-2-1.5-4-2-6.1c-0.2-0.9-1.7-1.1-2.1-0.1c-0.9,2.2-1.7,4.3-2.3,6.5c-0.4,1.4,1.8,1.8,2.2,0.4
			c0.3-1.1,0.6-2.1,1.1-3c0.5,1.6,1.1,3,1.8,4.5c0.3,0.8,1.3,1.1,1.9,0.4c2.9-2.7,6.2-5.1,9.8-6.8c-1.9,3.4-3.5,7-5,10.7
			c-0.3,0.7,0.2,1.7,1.1,1.6c2.2-0.1,4.4,0,6.7,0.3c-1.4,1.1-2.6,2-4,3c-1.2,0.8,0.1,2.6,1.3,1.9c2.1-1.5,4-3,6.1-4.4
			C297.4,247.7,297.1,246.4,296.1,246.2z"/>
		<g>
			<path class="st3" d="M242.4,131.5c-0.7,4-3.3,7.8-9.5,7.8c-7.5,0-10.2-5.5-10.2-12.2c0-6.7,3.4-12.2,10.4-12.2
				c6.5,0,8.9,4.1,9.1,7.8h-4.7c-0.5-2-1.3-3.9-4.5-3.9c-3.9,0-5.3,4-5.3,8.3c0,4.5,1.3,8.4,5.3,8.4c3.1,0,4.1-2.2,4.6-4
				C237.6,131.5,242.4,131.5,242.4,131.5z"/>
			<path class="st3" d="M266,130.1c0-4,0.1-8.9,0.2-11.5H266c-1.1,4.9-3.5,13.7-5.6,20.4h-4.2c-1.6-5.7-4-15.7-5-20.5H251
				c0.2,2.7,0.3,7.9,0.3,12v8.5h-4.5v-23.8h7.2c1.7,5.6,3.8,13.9,4.5,17.5l0,0c0.5-3.1,3.2-11.8,5-17.5h6.9V139h-4.7v-8.9H266z"/>
			<path class="st3" d="M279.7,132c0.3,2.2,1.8,3.6,4.3,3.6c2.7,0,3.6-1.2,3.6-2.8c0-2.2-1.3-3-4.8-4c-5.5-1.6-7.4-3.5-7.4-6.9
				c0-4.4,3.5-6.8,8-6.8c5.7,0,8.1,2.9,8.4,6.7H287c-0.3-1.8-1.2-3.1-3.7-3.1c-2.2,0-3.2,1-3.2,2.6c0,1.8,1.2,2.2,4.6,3.2
				c6.1,1.8,7.6,4.2,7.6,7.6c0,3.9-2.5,7.2-8.8,7.2c-5.2,0-8.6-2.6-8.9-7.3L279.7,132L279.7,132z"/>
		</g>
		<g>
			<path class="st5" d="M464,153.8h-43.3v-51.7h28.8l14.5,14.6V153.8L464,153.8z"/>
			<path class="st4" d="M449.4,116.6h14.5L449.4,102V116.6z"/>
			<path class="st7" d="M445.7,144.7v-1.2c2.6-0.3,2.9-0.7,2.4-2.2c-0.6-1.6-1.3-3.6-2.2-6.2h-8.8c-0.6,1.9-1.3,3.4-1.9,5.1
				c-1,2.6-0.3,2.9,3,3.3v1.2h-9.4v-1.2c2.5-0.3,3.2-0.6,4.7-4.3l8.4-21.3l1.3-0.2c2.5,6.9,5.4,14.6,7.9,21.6
				c1.3,3.5,1.7,3.9,4.6,4.2v1.2L445.7,144.7L445.7,144.7z M441.6,123.1c-1.3,3.5-2.7,7.2-3.9,10.4h7.6L441.6,123.1z"/>
		</g>
		<path class="st11" d="M551.6,189.6H506c-2.1,0-3.7,1.7-3.7,3.7v45.6c0,2.1,1.7,3.7,3.7,3.7h45.6c2.1,0,3.7-1.7,3.7-3.7v-45.6
			C555.3,191.3,553.7,189.6,551.6,189.6z"/>
		<path class="st11" d="M551.6,273.6H506c-2.1,0-3.7,1.7-3.7,3.7v45.6c0,2.1,1.7,3.7,3.7,3.7h45.6c2.1,0,3.7-1.7,3.7-3.7v-45.6
			C555.3,275.3,553.7,273.6,551.6,273.6z"/>
		<g>
			<path class="st1" d="M421.8,194.1l-191.1,43.1c-10,2.2-20-4-22.2-14.1l-0.4-2c-2.2-10,4-20,14.1-22.2l191.1-43.1
				c10-2.2,20,4,22.2,14.1l0.4,2C438,181.9,431.8,191.8,421.8,194.1z"/>
			<path class="st3" d="M429.4,172.3c0.9,4,0.1,7.9-2,11.2c-2.1,3.2-5.3,5.7-9.3,6.5l-172.9,38.8l-6.5-29.1l172.9-38.8
				C419.6,159.3,427.7,164.3,429.4,172.3z"/>
			<path class="st12" d="M244.5,198.6l6.5,29.1l-19.5,4.4c-7.9,1.8-15.9-3.2-17.8-11.2c-0.9-4-0.1-7.9,2-11.2
				c2.1-3.2,5.3-5.7,9.3-6.7L244.5,198.6z"/>
			<ellipse class="st9" cx="229.7" cy="217.5" rx="12.4" ry="12.4"/>
		</g>
		<g>
			<path class="st9" d="M230,352.2c-1.3,3.1-2.9,6.1-4.6,9c-1.5,2.4-2.7,5.3-5.4,6.9c-3,2-6.7,1.5-10.1,1.2
				c-3.6-0.3-7.2-0.6-10.8-0.9c-7.1-0.7-14.4-1.8-21.2-3.3c-6.5-1.6-13.1-3.5-19.1-6.7c-5.4-2.7-10-6.9-11.6-12.5
				c-1.9-6.3-0.1-13.1,1.6-19.2c1.8-6.5,4.1-12.9,6.7-19.2c2.2-5.2,4.6-10.4,7.2-15.4c0.7-1.6,1.4-3.1,2-4.5
				c0.4-0.8,0.7-1.8,1.2-2.5c11,0.6,21.9,1.9,32.7,3.5c1.4,0.2,2.5,0.4,3.8,0.6c-0.2,0.7-0.4,1.5-0.6,2.2c-0.2,0.7-0.4,1.5-0.6,2.2
				c-0.4,1.5-0.7,2.9-1.1,4.2c-0.2,0.7-0.3,1.5-0.5,2.2s-0.3,1.5-0.5,2.1v0.1c-0.1,0.6-0.3,1.3-0.4,1.9s-0.3,1.4-0.4,2
				c-0.2,0.8-0.3,1.7-0.5,2.4c-0.3,1.6-0.6,3.1-0.8,4.8c-0.1,0.4-0.1,0.7-0.2,1.2c-0.1,0.4-0.1,0.8-0.2,1.3
				c-0.1,0.5-0.1,1.1-0.2,1.6c-0.1,0.6-0.2,1.3-0.3,1.9c-0.1,0.7-0.2,1.6-0.3,2.2c-0.1,0.8-0.2,1.8-0.3,2.5
				c6.3,0.4,12.5,0.8,18.8,1.2c2.7,0.2,5.7,0.2,8.5,0.5c2.3,0.3,4.6,1.1,6.2,2.9c1.3,1.6,1.9,3.4,2,5.4c0.1,0.2,0.2,0.4,0.3,0.6
				C233.2,340.1,232.3,346.5,230,352.2z"/>
			<path class="st9" d="M365.1,369.9c-2.5,12.8-4.7,22-19.1,25.7c-4.9,1.3-9.2,1.2-13.2,0.2c-6.2-1.6-11.6-5.3-16.7-9.6
				c-4.6-4.1-11.1-4.6-15.6-8.8l-0.9,1.9l-8.5,15.7c-1.6,2.7-4.4,4.5-7.6,4.5H180.2l26.8-91c0.5,0,29.2,0.1,55.6,0.1
				c10.4,0,20.2,0,28,0.1c9.8,0,19,4.4,25,12.2l17.6,22.2c0.5-1.6,1.1-3.1,1.6-4.5c11,4.1,21.7,8.6,32.2,13.5
				c0.5,0.2,0.9,0.4,1.5,0.6C369.2,353.1,365.4,368.3,365.1,369.9z"/>
			<path class="st9" d="M365.1,369.9c-2.5,12.8-4.7,22-19.1,25.7c-4.9,1.3-9.2,1.2-13.2,0.2c-1.2-0.5-2.2-1.1-3.4-1.6
				c-12.1-4.5-24.5-12.6-28.9-16.9l-0.9,1.9c-0.6-0.5-1.3-0.9-1.8-1.5c-0.4-0.4-0.6-0.9-0.3-1.5c-3.3-3.8-6.7-7.6-9.8-11.4
				c-0.4,0.1-0.9-0.2-1.2-0.5c-1.9-2.6-3.6-5.4-5.5-8.1c-3.6-5.6-7.1-11.2-10.5-17c-1.7-2.9-3.3-5.8-5-8.8c-1.6-2.7-3.2-5.6-4.3-8.7
				c-1.1-2.9-1.6-5.9-0.7-9c0.4-1.5,1.1-2.7,2-4c10.4,0,20.2,0,28,0.1c9.8,0,19,4.4,25,12.2l17.6,22.2c0.5-1.6,1.1-3.1,1.6-4.5
				c11,4.1,21.7,8.6,32.2,13.5c0.5,0.2,0.9,0.4,1.5,0.6C369.2,353.1,365.4,368.3,365.1,369.9z"/>
			<path class="st1" d="M296.7,335.4c-2.2,0.5-4.6,0.6-6.8,0.4c-11-1.2-20.8-11.2-19.7-22.5c1.4-13.3,21.3-16.2,31-11.9
				c8.6,3.8,15,14.7,10.1,24.1C308.6,330.7,302.8,334.3,296.7,335.4z"/>
			<path class="st1" d="M285.5,273.7c-2,15.4-14.5,29.6-31,28.4c-16.5-1.3-28.8-14.8-27.5-30.1c1.4-15.4,15.7-26.8,32.3-25.6
				C276,247.6,287.9,255.8,285.5,273.7z"/>
			<path class="st8" d="M258.3,294c4.2,3.7,9.8,5.3,16.7,3.6c7.9-1.9,15.4-9.7,13.4-22.1c0-0.2-0.2-0.9-0.3-1.5
				c-0.1-0.3-0.3-0.4-0.6-0.4c-1.2,0-1.9,0-2.9-0.4c-0.7-0.2-1.4-0.8-1.6-1.7c-1.1-3.4-3.4-7.1-5.4-9.3c-2.4-2.7-6.5-4-10-5
				c-0.2-0.1-0.5-0.1-0.7-0.2c-0.3,0.4-0.3,0.3-0.7,0.7c0,0.2,0.1,0.3,0.1,0.5c0.1,0.6,0.2,1.3,0.3,1.9c1.3,8.6-1.5,17.5-6.5,24.5
				c-2.6,3.7-2.2,4.4-6.1,6.9c-0.8,0.5,0,1.3-0.4,1.7c-0.1,0.1-0.2,0.3-0.2,0.5C253.6,294.5,257.9,293.6,258.3,294z"/>
			<path class="st1" d="M197.5,338.5c-6.1,15.2-11.2,30.6-15.2,46.5c-1.2,4.4-2.2,9-3.1,13.4c-0.1,0.5,0.1,1.2,0.7,1.4
				c0.5,0.2,1.3-0.1,1.4-0.6c3.3-15.9,7.7-31.6,13.3-47c1.6-4.3,3.2-8.7,5-12.9C200.2,337.8,198,337.2,197.5,338.5z"/>
			<path class="st8" d="M408.9,289.2c-1.2,2-3.2,2.9-5.3,3.6c0.5,1.8,0.1,3.7-0.8,5.3c-1.2,2-3,3.3-5,4.3c-1.7,0.9-3.4,1.8-5.1,2.4
				c0.4,2.7-0.5,5.8-2.2,8c1.6,3.3-0.3,7-2.9,9.2c-2.4,2.1-5.6,3.3-8,5.3c-2.3,1.9-4.3,4-6.1,6.5c-0.4,0.5-0.7,1.1-1.1,1.6
				c-7.7-4.4-15.7-8.5-24.1-11.8c-2.6-1.2-5.4-2.2-8-3.2c0.7-6.1,2-12,3.6-18c0.8-2.9,1.8-5.8,2.9-8.6c1.1-2.6,2.2-5.3,3.1-8
				c0.4-1.4,0.7-2.6,0.8-4.1c0.1-1.5-0.1-2.9-0.4-4.3c-0.4-2.2-0.7-5,0.6-6.9c-0.1-0.3,0-0.6,0.3-0.9c1.7-1.7,4.1-1.9,6.2-1.2
				c4.6,1.6,5.8,6.9,5.9,11.2c0.1,3.9-0.5,9.1,2.4,12c4.8-1.6,9.6-3,14.5-4.4c6.2-1.8,12.5-3.4,18.8-5c2.6-0.6,5.6-1.5,8.1,0.1
				C409.8,284.1,410.2,286.9,408.9,289.2z"/>
			<path class="st3" d="M290.1,280.9c0-2.4-0.3-4.9-1.2-7.1c-0.2-0.5-0.6-0.9-1.3-0.8c-0.5,0.1-1.1,0.7-0.8,1.3
				c2.5,7.1,0.4,15.2-5.5,20.1c-1.6,1.3-3.2,2.2-5.1,2.9c-0.3,0.1-0.5,0.5-0.6,0.9c0,0.4-0.1,0.8-0.1,1.3c-0.1,1.4,2,1.5,2.2,0.1
				c0-0.2,0-0.4,0.1-0.6C285.1,295.7,290,288.6,290.1,280.9z"/>
			<path class="st1" d="M311.2,318.5c-0.8-0.1-1.7-0.3-2.3-0.4c-0.4,0.1-0.7,0-1.1-0.1c-3.7-0.5-7.4-0.7-11.2-0.6
				c-11.8,0.2-24.4,3.1-34.2,10.4c-7.6,5.6-10.9,12.7-15.5,20.6c-7,11.8-22.4,14.7-35,12.9c-4.3-0.6-7.6-1.6-10.6-5.1
				c-2.7-3.3-5.1-5.9-9.6-5.7c-2.2,0.1-4.4,0.5-6.7,0.2c-16.4-2.2-19.8-24.4-14.3-33.8c6.2-10.8,19.9-18.2,30.3-22.9
				c10-4.5,22.6-10.4,26.1-21.2c1.5-4.5,2-8,2-8l26.6,6.5c0,0,0,0.4,0.1,1.2c0.3,0.1,0.6,0.4,0.7,0.8c1.8,7.5,4,14.9,6.7,22.2
				c2.1,3,6.5,4,10,4c6.7,0,12.6-1.1,19.1,1.2c8.1,2.6,15.5,8.1,18.7,16.3C311.4,317.6,312.2,318.7,311.2,318.5z"/>
			<ellipse class="st8" cx="259.9" cy="288.8" rx="6.5" ry="6.5"/>
			<path class="st13" d="M264.8,286.2c-0.3-0.5-0.9-0.8-1.5-0.4c-0.4,0.2-0.8,0.4-1.3,0.6l-0.2,0.1c-0.1,0-0.1,0-0.2,0.1
				c-0.2,0.1-0.4,0.1-0.6,0.2s-0.4,0.1-0.7,0.1c-0.1,0-0.2,0-0.3,0h0c0,0,0,0-0.1,0c-0.4,0-0.9,0-1.4,0c-0.5-0.1-1.2,0.4-1.2,1.1
				s0.4,1.1,1.1,1.2c2.1,0.2,4.1-0.3,5.9-1.4C264.8,287.4,265.1,286.8,264.8,286.2z"/>
			<path class="st1" d="M279.1,278.7c0,1.3-1.1,2.2-2.2,2.2c-1.3,0-2.2-1.1-2.2-2.2c0-1.3,1.1-2.2,2.2-2.2
				C278,276.4,279.1,277.3,279.1,278.7z"/>
			<path class="st1" d="M276.9,269.9c-0.6-0.6-1.6-0.7-2.3-0.5c-1.8,0.6-3.2,2-4.2,3.4c-0.7,1.1-2.4,3.1-2.2,4.4
				c0.1,0.2,0.2,0.5,0.4,0.6c0.6,0.1,2-1.3,2.5-1.9c1.2-1.1,2.3-2.1,3.8-2.6c1.5-0.6,1.9-0.4,2.1-0.9
				C277.2,271.6,277.5,270.6,276.9,269.9z"/>
			<path class="st1" d="M272.9,264.9c-0.7,2.2-1.6,4.3-2.6,6.3c-2.1,4.1-4.9,7.8-7.9,11.2c-0.8,0.9-2.1-0.3-1.7-1.4
				c-0.1-0.1-0.2-0.1-0.3-0.2c-0.2-0.1-0.3-0.3-0.5-0.4c0,0-0.1-0.1-0.1-0.2c-0.1-0.1-0.2-0.2-0.2-0.4l0,0c-0.6-0.4-0.8-1.4-0.9-2.1
				c-0.1-1.5-0.1-2.7-0.2-4.2c-0.1-3-0.1-5.9,0.1-8.9c0.2-2.3,0.3-5,1.3-7.1c0.8-2.2,2.4-3.5,4.8-4.1c2-0.5,4.4-0.6,6.4,0.2
				c2.1,0.9,3,2.9,3.1,5C274.2,260.8,273.6,263,272.9,264.9z"/>
			<path class="st1" d="M265.6,277c-0.1-0.9-1.2-1.1-1.8-0.6c-0.2-0.1-0.5-0.2-0.7-0.1c-0.6,0.1-0.8,0.7-0.8,1.3
				c0.1,1.1,0.2,2.1,0.3,3.2c-0.4-0.1-0.8,0-1.2,0.2c-0.5,0.4-0.4,1.1-0.1,1.6c0.9,1.4,1.8,2.7,2.4,4.2c0.4,1.1,2,0.6,2.1-0.4
				C266,283.3,266.1,280.1,265.6,277z"/>
			<path class="st3" d="M372.5,335.5c-0.3,0.5-0.6,1.1-0.9,1.6c0,0,0,0,0,0.1v0.1c0,0.1,0,0.3-0.1,0.5c0,0.1,0,0.2,0,0.2
				c0,0.1,0,0.2-0.1,0.3c0,0.1,0,0.2-0.1,0.3c-0.1,0.6-0.2,1.3-0.4,2.1c0,0.2-0.1,0.5-0.1,0.7s-0.1,0.5-0.1,0.7s-0.1,0.5-0.1,0.7
				s-0.1,0.3-0.1,0.5c-0.1,0.3-0.1,0.7-0.2,1.1c0,0.2-0.1,0.4-0.1,0.7c-0.1,0.3-0.1,0.6-0.2,1.1c-0.4,2-0.8,4.1-1.3,6.5
				c-0.5-0.2-0.9-0.4-1.5-0.6c-10.6-5-21.3-9.5-32.2-13.5c0.6-2,1.3-3.8,1.9-5.7c0.4-1.2,0.7-2.2,1.1-3.2c0.6-2.2,1.5-4.5,2.2-6.8
				c0-0.1,0-0.2,0-0.3c0.1-0.7,0.1-1.5,0.2-2.2c2.6,1.1,5.4,2.1,8,3.2C356.7,327.1,364.7,331.1,372.5,335.5z"/>
			<path class="st3" d="M206.9,274.5c-1.1,2.6-2,5.3-2.7,7.9c-0.1,0.2-0.1,0.4-0.2,0.5c-0.3,0.8-0.5,1.7-0.8,2.4
				c-0.1,0.3-0.2,0.6-0.3,0.9c-0.2,0.8-0.5,1.7-0.7,2.4c-1.3-0.2-2.5-0.4-3.8-0.6c-10.9-1.8-21.7-2.9-32.7-3.5c0.4-1.1,0.8-2,1.3-3
				c2.1-4.9,3.9-9.7,5.4-14.7c2,0.1,3.8,0.3,5.8,0.5C187.9,268.6,197.6,271.1,206.9,274.5z"/>
			<path class="st13" d="M286.6,285.6c-0.3-0.5-0.9-0.8-1.5-0.4c-0.2,0.1-0.3,0.2-0.5,0.3c-0.1,0-0.2,0.1-0.2,0.1h-0.1
				c-0.2,0.1-0.4,0.1-0.5,0.1s-0.2,0-0.3,0c-0.2,0-0.4,0-0.6,0c-0.1,0-0.2,0-0.3,0c0,0,0,0-0.1,0c-0.2,0-0.4-0.1-0.5-0.2
				c-0.1,0-0.2-0.1-0.2-0.1s0,0-0.1,0c-0.5-0.3-1.2-0.2-1.5,0.3s-0.2,1.3,0.3,1.5c1.8,0.9,3.9,0.9,5.6-0.1c0.2-0.2,0.4-0.3,0.5-0.6
				C286.8,286.1,286.7,285.8,286.6,285.6z"/>
			<path class="st3" d="M410.1,289c-1.3,2.3-3.7,3.6-6.1,4.5c-2.7,1.1-5.7,2.1-8.6,3.1c-2.9,1.1-5.9,2.1-8.8,3.2c0,0,0-0.1-0.1-0.1
				c0,0,0,0-0.1-0.1s-0.1-0.3-0.2-0.4l0,0c0,0,0,0,0-0.1V299c0-0.1,0-0.2,0-0.3v-0.1c0-0.1,0-0.2,0-0.4c0-0.1,0-0.1,0-0.2
				s0.1-0.2,0.1-0.3c0,0,0,0,0-0.1c3-1.1,6-2.2,9-3.2c2.6-0.9,5.4-1.9,8-2.9c2.1-0.8,4.4-2,5.2-4.2c0.6-2-0.7-3.7-2.5-4.4
				c-2.3-0.9-5-0.2-7.2,0.5c-11.2,3.5-22.3,7-33.6,10.6c-0.5,0.2-1.2-0.3-1.3-0.8c-0.1-0.6,0.3-1.1,0.8-1.3l20.1-6.4
				c3-0.9,5.9-1.9,8.9-2.7c2.7-0.8,5.6-2.1,8.6-2.3c2.5-0.3,5.2,0.3,6.9,2.2C411,284.3,411.2,286.8,410.1,289z"/>
			<path class="st3" d="M403.2,293c-0.5,0-1.2,0.4-1.2,1.1c0.1,2.7-1.5,5.2-3.6,6.9c-2.6,2.1-6.1,3-9.3,3.8
				c-1.4,0.3-0.9,2.4,0.4,2.2c3.6-0.9,7.5-2,10.5-4.4c2.4-2,4.2-5,4.2-8.2C404.1,293.6,403.8,293,403.2,293z"/>
			<g>
				<path class="st8" d="M237,240.1c-0.5,3-3.1,4.6-5.7,6.2c-2.3,1.5-4.1,3.4-5.6,5.7c-1.5,2.2-2.5,4.6-4,6.9s-3.2,4.5-5.1,6.5
					c-2.5,2.6-5.7,5.1-9,6.9c-0.3,0.7-0.5,1.5-0.8,2.2c-9.3-3.5-19-5.9-29-7c-2-0.2-3.8-0.4-5.8-0.5c1.5-4.8,2.4-9.6,3-14.6
					c0.3-3.2,0.2-6.4,0.9-9.6c0.6-2.9,4.5-9.4,6.9-11.4c4.1-3.6,7.7-5.7,13.1-6.9c0.2-1.5,0.2,1.5,0.5,0c1.2-5.3,3.3-10.6,7-14.8
					c1.8-2.1,5.5-8.6,10.7-8.6c2.9,0,6.8,2.3,5.8,4.8c-1.4,2.7-5.1,8-5.6,9.3c-0.6,1.4-1.2,2.6-1.7,4c-0.9,2.6-1.7,5.5-2,8.2
					c-0.5,4-0.5,8.1,0.1,12.2c1.4,1.1,3.4,1.4,5.2,1.1c3.5-0.6,6.4-2.9,9.5-4.5c2.2-1.2,4.9-1.9,7.4-1.4
					C235.8,235.4,237.5,237.6,237,240.1z"/>
				<path class="st13" d="M218.1,201.2c-2.6-1.4-5.7-0.2-8,1.4c-4.4,2.9-8,6.9-10.7,11.5c-2.7,5.2-4.3,11.1-4.1,17
					c0,0.6,0.4,1.2,1.1,1.2c0.5,0,1.2-0.4,1.2-1.1c-0.4-9.8,4.1-19.7,11.8-25.6c1.9-1.5,4.2-3.3,6.7-2.7c2.6,0.4,2.9,3.3,2,5.4
					c-0.5,1.3-1.5,2.3-2.2,3.4c-0.7,1.2-1.5,2.2-2.1,3.4c-1.3,2.2-2.2,4.8-2.9,7.3c-1.6,5.8-1.7,11.9-0.1,17.8
					c0.3,1.4,2.4,0.9,2.1-0.5c-1.5-5.4-1.5-11.1,0-16.5c0.7-2.6,1.8-5.3,3.2-7.7c1.5-2.4,3.5-4.5,4.4-7.3
					C221.2,205.5,220.7,202.5,218.1,201.2z"/>
				<path class="st13" d="M235.1,235c-2-1.4-4.3-1.8-6.7-1.3c-3,0.7-5.6,2.5-8.1,4.1c-2.4,1.5-5.8,2.7-8.6,1.5
					c-0.5-0.3-1.2-0.2-1.5,0.3c-0.3,0.4-0.2,1.3,0.3,1.5c2.4,1.3,5.2,1.1,7.7,0.1c2.4-0.9,4.6-2.4,6.9-3.8c2-1.2,4.2-2.2,6.7-1.6
					c1.7,0.4,3.5,1.6,3.7,3.4c0.2,2.1-1.9,3.5-3.3,4.5c-0.9,0.6-2,1.3-2.9,2c-0.9,0.8-1.9,1.7-2.6,2.6c-3.3,3.8-5.4,8.6-8.3,12.6
					c-3.5,4.6-7.9,8.6-13,11.4c-1.3,0.7-0.2,2.5,1.1,2c4.8-2.6,9-6.3,12.4-10.5c1.8-2.1,3.2-4.3,4.6-6.7c1.4-2.2,2.6-4.5,4.2-6.7
					c1.6-2,3.3-3.5,5.4-4.9c1.9-1.3,3.9-2.6,4.4-5.1C238,238.4,236.9,236.3,235.1,235z"/>
				<path class="st13" d="M196.2,224.5c-9,0.6-16.8,6.3-20.1,14.8c-0.8,2.3-1.4,4.9-1.5,7.4c0,1.4,2.2,1.6,2.2,0.1
					c0.2-8.1,5.2-15.5,12.7-18.7c2.1-0.8,4.2-1.4,6.4-1.6c0.6,0,1.2-0.4,1.2-1.1C197.3,225.1,196.8,224.5,196.2,224.5z"/>
				<path class="st13" d="M191.4,226.5c-0.4-0.4-1.2-0.5-1.6-0.1c-1.7,1.7-2.7,3.8-3.1,6.2c-0.1,0.5,0.5,1.2,1.1,1.2
					s1.1-0.4,1.2-1.1c0-0.1,0-0.2,0-0.3s0-0.2,0.1-0.2c0.1-0.2,0.1-0.4,0.2-0.7c0.1-0.2,0.2-0.5,0.2-0.7c0-0.1,0.1-0.2,0.1-0.3
					c0,0,0-0.1,0.1-0.1c0,0,0,0,0-0.1c0.2-0.4,0.5-0.8,0.7-1.3c0.1-0.2,0.3-0.3,0.4-0.5c0,0,0,0,0-0.1l0.1-0.1
					c0.1-0.1,0.2-0.2,0.3-0.3C191.6,227.5,191.7,226.9,191.4,226.5z"/>
			</g>
			<path class="st1" d="M300.6,377.4c-3.8-4.6-7.6-9.3-11.4-13.9c-0.9-1.1-2.4,0.4-1.7,1.5c3.8,4.6,7.6,9.3,11.4,13.9
				C299.8,379.9,301.5,378.4,300.6,377.4z"/>
			<path class="st3" d="M366.9,290.3c-1.8-1.4-2.5-3.6-2.9-5.8c-0.5-2.7-0.2-5.7-0.5-8.5c-0.4-4.2-2.6-9.2-7.5-9.6
				c-2.2-0.2-4.6,0.7-5.7,2.7c-0.3,0.5-0.2,1.2,0.3,1.5c0.4,0.3,1.3,0.2,1.5-0.3c0.7-1.5,2.3-2,3.9-1.9c1.9,0.2,3.2,1.6,4,3.2
				c2.2,4.3,0.9,9.5,2,14.2c0.5,2.3,1.7,4.6,3.7,6.2C366.8,293,368.1,291.1,366.9,290.3z"/>
			<path class="st3" d="M350.5,269.3c-1.7,2.9-1.8,6.2-1.7,9.5c0,1.7,0.1,3.4-0.1,5.1c-0.1,1.6-0.5,3.2-0.9,4.6
				c-0.9,3.2-2.4,6.2-3.8,9.3c-1.5,3.2-2.5,6.5-3.3,9.9c-0.8,3.6-1.4,7.2-2,10.9c-0.6,3.5-1.4,7-2.2,10.6
				c-1.9,6.9-4.2,13.7-6.9,20.4c-3.1,7.5-6.5,15-9.9,22.3c-0.2,0.5,0.2,1.3,0.7,1.4c0.6,0.2,1.2-0.1,1.4-0.7c6-13,12-26.1,16-40.1
				c0.9-3.4,1.8-6.9,2.4-10.4c0.7-3.6,1.2-7.2,1.9-10.8c0.6-3.5,1.6-7,2.9-10.4c1.3-3.1,2.7-6.1,3.9-9.3c1.4-3.5,2.1-7.1,2.1-10.9
				c0-3.5-0.4-7.3,1.4-10.5C353,269.3,351.2,268.1,350.5,269.3z"/>
			<path class="st3" d="M393.8,305.9c-0.1-0.6-0.6-1.1-1.3-0.9c-0.6,0.1-1.1,0.6-0.9,1.3c0,0.3,0.1,0.5,0.1,0.8c0,0.1,0,0.2,0,0.3
				c0,0.1,0,0.3,0,0.4c0,0.3-0.1,0.5-0.1,0.8c0,0.1,0,0.1,0,0.2c0,0.2-0.1,0.3-0.1,0.5c-0.1,0.3-0.2,0.5-0.3,0.8
				c-0.1,0.1-0.1,0.2-0.2,0.4c0,0,0,0,0,0.1l-0.1,0.1c-0.1,0.2-0.3,0.5-0.5,0.7c-0.1,0.1-0.2,0.2-0.3,0.3c0,0.1-0.1,0.1-0.1,0.2
				c0,0-0.2,0.2,0,0c-0.4,0.4-0.6,1.1-0.2,1.6c0.3,0.4,1.2,0.6,1.6,0.2C393.1,311.6,394.2,308.7,393.8,305.9z"/>
			<path class="st3" d="M392.1,313.4c-0.2-1.5-2.3-1.2-2.2,0.3c0.3,2.3-0.1,5-1.5,7c-1.5,2.2-4,3.3-6.3,4.6
				c-4.2,2.5-8.2,5.7-10.5,10.4c-0.6,1.3,1.5,2.1,2.1,0.8c2.2-5,7.1-7.8,11.6-10.6c2.2-1.4,4.2-2.7,5.5-5.3
				C392.1,318.5,392.4,316,392.1,313.4z"/>
			<path class="st1" d="M237.4,254.6c0-1.2-0.2-2.2-0.6-3.3c-0.2-0.4-0.6-0.7-1.1-0.6c-0.4,0-0.8,0.3-1.1,0.7
				c-0.2,0.6-0.3,1.3-0.3,1.9c-0.5-0.1-1.2-0.2-1.7-0.2c-0.4,0-0.8,0.4-0.9,0.8c-0.1,0.4,0.1,0.8,0.4,1.2c0.9,0.8,2.1,1.4,3.3,1.4
				c0.1,0,0.1,0,0.2,0s0.2,0,0.4,0h0.1c0.2,0,0.3,0,0.5-0.1c0,0,0,0,0.1,0c0.6-0.1,1.1-0.6,0.9-1.3
				C237.5,254.8,237.5,254.7,237.4,254.6z"/>
		</g>
	</g>
</g>
</svg>
